# xmcd CD database file
#
# Track frame offsets:
#	182
#	9752
#	21505
#	32662
#	44450
#	54560
#	65697
#	75117
#	85637
#	92605
#	106517
#	117377
#	125710
#	135635
#	146630
#	158715
#	168192
#	176460
#	188775
#	200205
#	212577
#	220992
#	233982
#	243942
#	257180
#	267680
#	280985
#	291197
#	300652
#	309307
#
# Disc length: 4237 seconds
#
# Revision: 2
# Processed by: cddbd v1.5.2PL0 Copyright (c) Steve Scherf et al.
# Submitted via: CDex 1.75
#
DISCID=aa108b1e
DTITLE=Various Artist - THIRTY YEARS OF BLUEGRASS
DYEAR=1986
DGENRE=Bluegrass
TTITLE0=Stanley Bros - HOW MOUNTAIN GIRLS CAN LOVE
TTITLE1=Flatt and Scruggs - ROLLING IN MY SWEET BABY'S ARMS
TTITLE2=Flatt and Scruggs - SALTY DOG
TTITLE3=Reno and Smiley - I KNOW YOU'RE MARRIED
TTITLE4=Reno and Smiley - I WOULDN'T CHANGE YOU IF I COULD
TTITLE5=Country Gentlemen - FREEDOM BELL
TTITLE6=Hylo Brown - THE GIRL IN THE BLUE VELVET BAND
TTITLE7=Jimmy Martin and Bob Osborne - BLUE EYED DARLING
TTITLE8=Stanley Bros - RANK STRANGERS
TTITLE9=Scotty Stoneman - TALKING FIDDLE BLUES
TTITLE10=Benny Martin - ORANGE BLOSSOM SPECIAL
TTITLE11=Tommy Jackson - COTTON EYED JOE
TTITLE12=Jim and Jesse - PARDON ME
TTITLE13=Bill Clifton - BLUE RIDGE MOUNTAIN BLUES
TTITLE14=Mac Wiseman - I STILL WRITE YOUR NAME IN THE SAND
TTITLE15=Bill Emerson - BANJO WHIZ
TTITLE16=Allen Shelton - BENDING THE STRINGS
TTITLE17=Jimmy Martin and Bob Osborne - SHE'S JUST A CUTE THING
TTITLE18=Red Allen - BEAUTIFUL BLUE EYES
TTITLE19=New Grass Revival - LONESOME FIDDLE BLUES
TTITLE20=Kentucky Travelers - DREAMING
TTITLE21=Grandpa Jones - OLD RATTLER
TTITLE22=Bill Harrell - EATIN OUT OF YOUR HAND
TTITLE23=Jim Eanes - LOG CABIN IN THE LANE
TTITLE24=Stringbean - BARNYARD BANJO PICKIN
TTITLE25=Stoneman Family - WRECK OF NUMBER NINE
TTITLE26=Charlie Monroe - WILLOW GARDEN
TTITLE27=Moore and Napier - TRUCK DRIVER'S QUEEN
TTITLE28=Buzz Busby - ME AND THE JUKE BOX
TTITLE29=Carl Story - PAUL AND SILAS
EXTD=YEAR: 1986
EXTT0=
EXTT1=
EXTT2=
EXTT3=
EXTT4=
EXTT5=
EXTT6=
EXTT7=
EXTT8=
EXTT9=
EXTT10=
EXTT11=
EXTT12=
EXTT13=
EXTT14=
EXTT15=
EXTT16=
EXTT17=
EXTT18=
EXTT19=
EXTT20=
EXTT21=
EXTT22=
EXTT23=
EXTT24=
EXTT25=
EXTT26=
EXTT27=
EXTT28=
EXTT29=
PLAYORDER=
